<svg width="512" height="512" viewBox="0 0 512 512" fill="none" xmlns="http://www.w3.org/2000/svg">
<rect width="512" height="512" rx="110" fill="#FF4252"/>
<path d="M194.461 174.533H250.003C275.312 174.533 293.663 178.155 305.057 185.397C316.531 192.559 322.269 203.993 322.269 219.699C322.269 230.36 319.746 239.108 314.7 245.944C309.736 252.78 303.104 256.89 294.803 258.273V259.494C306.115 262.017 314.253 266.737 319.217 273.654C324.262 280.572 326.785 289.768 326.785 301.242C326.785 317.518 320.885 330.214 309.085 339.328C297.366 348.443 281.416 353 261.233 353H194.461V174.533ZM232.303 245.212H254.275C264.529 245.212 271.935 243.625 276.492 240.451C281.131 237.277 283.45 232.028 283.45 224.704C283.45 217.868 280.927 212.985 275.882 210.056C270.918 207.045 263.024 205.539 252.2 205.539H232.303V245.212ZM232.303 275.241V321.75H256.961C267.378 321.75 275.068 319.756 280.032 315.769C284.996 311.781 287.479 305.677 287.479 297.458C287.479 282.647 276.899 275.241 255.74 275.241H232.303Z" fill="white"/>
</svg>
