<svg width="241" height="38" viewBox="0 0 241 38" fill="none" xmlns="http://www.w3.org/2000/svg">
<path d="M0.492188 1.30664H11.6006C16.6624 1.30664 20.3327 2.03092 22.6113 3.47949C24.9062 4.91178 26.0537 7.19857 26.0537 10.3398C26.0537 12.472 25.5492 14.2217 24.54 15.5889C23.5472 16.9561 22.2207 17.778 20.5605 18.0547V18.2988C22.8229 18.8034 24.4505 19.7474 25.4434 21.1309C26.4525 22.5143 26.957 24.3535 26.957 26.6484C26.957 29.9036 25.777 32.4427 23.417 34.2656C21.0732 36.0885 17.8831 37 13.8467 37H0.492188V1.30664ZM8.06055 15.4424H12.4551C14.5059 15.4424 15.987 15.125 16.8984 14.4902C17.8262 13.8555 18.29 12.8057 18.29 11.3408C18.29 9.97363 17.7855 8.99707 16.7764 8.41113C15.7835 7.80892 14.2048 7.50781 12.04 7.50781H8.06055V15.4424ZM8.06055 21.4482V30.75H12.9922C15.0755 30.75 16.6136 30.3512 17.6064 29.5537C18.5993 28.7562 19.0957 27.5355 19.0957 25.8916C19.0957 22.9294 16.9798 21.4482 12.748 21.4482H8.06055ZM66.4834 19.1045C66.4834 25.0127 65.0186 29.5537 62.0889 32.7275C59.1592 35.9014 54.96 37.4883 49.4912 37.4883C44.0225 37.4883 39.8232 35.9014 36.8936 32.7275C33.9639 29.5537 32.499 24.9964 32.499 19.0557C32.499 13.1149 33.9639 8.58203 36.8936 5.45703C39.8395 2.31576 44.055 0.745117 49.54 0.745117C55.0251 0.745117 59.2161 2.32389 62.1133 5.48145C65.0267 8.639 66.4834 13.18 66.4834 19.1045ZM40.4336 19.1045C40.4336 23.0921 41.1904 26.0951 42.7041 28.1133C44.2178 30.1315 46.4801 31.1406 49.4912 31.1406C55.5296 31.1406 58.5488 27.1286 58.5488 19.1045C58.5488 11.0641 55.5459 7.04395 49.54 7.04395C46.529 7.04395 44.2585 8.0612 42.7285 10.0957C41.1986 12.1139 40.4336 15.1169 40.4336 19.1045ZM102.934 1.30664V24.4023C102.934 27.0391 102.34 29.3503 101.151 31.3359C99.9795 33.3216 98.2786 34.8434 96.0488 35.9014C93.819 36.9593 91.1823 37.4883 88.1387 37.4883C83.5488 37.4883 79.9844 36.3164 77.4453 33.9727C74.9062 31.6126 73.6367 28.39 73.6367 24.3047V1.30664H81.1807V23.1572C81.1807 25.9079 81.734 27.9261 82.8408 29.2119C83.9476 30.4977 85.7786 31.1406 88.334 31.1406C90.8079 31.1406 92.5983 30.4977 93.7051 29.2119C94.8281 27.9098 95.3896 25.8753 95.3896 23.1084V1.30664H102.934ZM143.339 37H133.72L118.192 9.99805H117.973C118.282 14.7669 118.437 18.1686 118.437 20.2031V37H111.674V1.30664H121.22L136.723 28.04H136.894C136.649 23.4014 136.527 20.1217 136.527 18.2012V1.30664H143.339V37ZM167.509 7.09277C164.66 7.09277 162.455 8.16699 160.893 10.3154C159.33 12.4476 158.549 15.4261 158.549 19.251C158.549 27.21 161.535 31.1895 167.509 31.1895C170.015 31.1895 173.051 30.5628 176.615 29.3096V35.6572C173.686 36.8779 170.414 37.4883 166.801 37.4883C161.609 37.4883 157.637 35.9176 154.887 32.7764C152.136 29.6188 150.761 25.0941 150.761 19.2021C150.761 15.4912 151.436 12.2441 152.787 9.46094C154.138 6.66146 156.075 4.52116 158.598 3.04004C161.137 1.54264 164.107 0.793945 167.509 0.793945C170.976 0.793945 174.459 1.63216 177.958 3.30859L175.517 9.46094C174.182 8.82617 172.839 8.27279 171.488 7.80078C170.137 7.32878 168.811 7.09277 167.509 7.09277ZM204.789 37H184.232V1.30664H204.789V7.50781H191.801V15.3447H203.886V21.5459H191.801V30.75H204.789V37ZM219.828 17.1514H222.27C224.662 17.1514 226.428 16.7526 227.567 15.9551C228.707 15.1576 229.276 13.9043 229.276 12.1953C229.276 10.5026 228.69 9.29818 227.519 8.58203C226.363 7.86589 224.564 7.50781 222.123 7.50781H219.828V17.1514ZM219.828 23.3037V37H212.26V1.30664H222.66C227.51 1.30664 231.099 2.19368 233.427 3.96777C235.754 5.72559 236.918 8.40299 236.918 12C236.918 14.0996 236.34 15.9714 235.185 17.6152C234.029 19.2428 232.393 20.5205 230.277 21.4482C235.648 29.4723 239.148 34.6562 240.775 37H232.377L223.856 23.3037H219.828Z" fill="#FF4252"/>
</svg>
